<svg width="480" height="305" viewBox="0 0 480 305" fill="none" xmlns="http://www.w3.org/2000/svg">
<g clip-path="url(#clip0_26_126)">
<path d="M430.021 303.464H112.435C107.64 303.464 103.742 298.875 103.742 293.228V82.8182C103.742 77.1715 107.64 72.5825 112.435 72.5825H430.021C434.817 72.5825 438.714 77.1715 438.714 82.8182V293.228C438.714 298.875 434.817 303.464 430.021 303.464ZM112.435 79.2453C110.759 79.2453 109.401 80.8444 109.401 82.8182V293.228C109.401 295.202 110.759 296.801 112.435 296.801H430.021C431.697 296.801 433.055 295.202 433.055 293.228V82.8182C433.055 80.8444 431.697 79.2453 430.021 79.2453H112.435Z" fill="#D5D5D6"/>
<path d="M191.994 175.606H176.674V221.479H191.994V175.606Z" fill="#BEEF9E"/>
<path d="M216.821 171.2H201.501V221.479H216.821V171.2Z" fill="#BEEF9E"/>
<path d="M241.648 188.406H226.328V221.479H241.648V188.406Z" fill="#BEEF9E"/>
<path d="M266.475 178.196H251.154V221.479H266.475V178.196Z" fill="#BEEF9E"/>
<path d="M291.302 186.941H275.981V221.47H291.302V186.941Z" fill="#BEEF9E"/>
<path d="M316.129 161.172H300.808V221.479H316.129V161.172Z" fill="#BEEF9E"/>
<path d="M340.955 171.2H325.635V221.479H340.955V171.2Z" fill="#BEEF9E"/>
<path d="M365.782 162.463H350.462V221.479H365.782V162.463Z" fill="#BEEF9E"/>
<path d="M125.082 101.757H238.154C239.172 101.757 240 102.732 240 103.931C240 105.13 239.172 106.105 238.154 106.105H125.082C124.064 106.105 123.236 105.13 123.236 103.931C123.236 102.732 124.064 101.757 125.082 101.757Z" fill="#D5D5D6"/>
<path d="M480 303.464C480 304.155 479.526 304.713 478.939 304.713H1.06098C0.473903 304.713 0 304.155 0 303.464C0 302.773 0.473903 302.215 1.06098 302.215H478.939C479.526 302.215 480 302.773 480 303.464Z" fill="#2E2E41"/>
<path d="M94.5684 50.5371L108.467 55.9173V32.3561H95.8557L94.5684 50.5371Z" fill="#F3A3A6"/>
<path d="M106.748 38.8773C114.397 38.8773 120.598 31.5764 120.598 22.5702C120.598 13.564 114.397 6.26306 106.748 6.26306C99.0996 6.26306 92.8991 13.564 92.8991 22.5702C92.8991 31.5764 99.0996 38.8773 106.748 38.8773Z" fill="#F3A3A6"/>
<path d="M103.219 23.8444L105.129 26.5761L108.58 19.4636C108.58 19.4636 112.987 19.7301 112.987 15.8824C112.987 12.0346 117.033 11.9264 117.033 11.9264C117.033 11.9264 122.755 0.158259 110.9 3.25645C110.9 3.25645 102.674 -3.38134 98.586 2.29034C98.586 2.29034 86.0452 9.72766 89.6313 22.6784L95.594 36.0206L96.945 32.9974C96.945 32.9974 96.1245 20.3131 103.219 23.8444Z" fill="#2F2E43"/>
<path d="M101.939 273.732H90.7489V292.421H101.939V273.732Z" fill="#F3A3A6"/>
<path d="M100.701 303.123C98.784 303.331 89.214 304.214 88.733 301.632C88.2945 299.258 88.9381 296.776 89.0301 296.443C89.9496 285.666 90.2891 285.541 90.4942 285.466C90.8196 285.358 91.7745 285.883 93.3164 287.057L93.4155 287.132L93.4367 287.265C93.465 287.432 94.1511 291.388 97.3906 290.788C99.6116 290.372 100.333 289.797 100.566 289.514C100.375 289.414 100.142 289.239 99.9794 288.931C99.7389 288.489 99.6964 287.923 99.852 287.249C100.269 285.458 101.521 282.809 101.571 282.701L101.712 282.401L114.43 292.504L122.281 295.144C122.875 295.344 123.349 295.844 123.59 296.51C123.922 297.443 123.717 298.525 123.08 299.2C121.652 300.707 118.822 303.297 115.844 303.614C115.052 303.697 114.005 303.731 112.831 303.731C107.915 303.731 100.75 303.131 100.694 303.123H100.701Z" fill="#2F2E43"/>
<path d="M67.0286 245.674L56.9113 260.074L65.5331 268.473L75.6504 254.073L67.0286 245.674Z" fill="#F3A3A6"/>
<path d="M58.7993 275.797C57.2149 274.514 49.3566 268.018 50.3822 265.67C51.33 263.513 53.1691 262.088 53.4237 261.897C59.9664 254.285 60.2988 254.443 60.4969 254.543C60.8081 254.701 61.2537 255.825 61.8125 257.883L61.8479 258.007L61.7913 258.124C61.7205 258.274 60.1079 261.839 62.9301 263.804C64.8681 265.153 65.7381 265.245 66.0635 265.203C65.9715 264.987 65.8866 264.67 65.922 264.312C65.9715 263.796 66.2474 263.321 66.7425 262.921C68.0369 261.855 70.4276 260.756 70.5337 260.706L70.8025 260.581L75.1313 277.912L79.7501 285.841C80.0967 286.441 80.1957 287.182 80.0189 287.882C79.7713 288.848 79.0286 289.531 78.1657 289.572C76.2489 289.664 72.6698 289.531 70.2013 287.54C69.5505 287.015 68.723 286.258 67.8176 285.375C64.0335 281.685 58.8347 275.847 58.7922 275.797H58.7993Z" fill="#2F2E43"/>
<path d="M120.442 129.574H82.063L90.5933 278.953H103.389L120.449 129.574H120.442Z" fill="#2F2E43"/>
<path d="M112.626 137.803L120.442 129.574L116.531 211.734L72.8254 260.689L61.9257 250.087L87.3962 211.176L112.626 137.803Z" fill="#2F2E43"/>
<path d="M112.626 41.7089L93.6701 38.0861L87.7852 50.204C80.3018 65.6116 77.2532 83.4512 79.0852 101.066L82.063 129.591H120.442L112.626 41.7173V41.7089Z" fill="#BEEF9E"/>
<path d="M97.235 156.475C98.0201 161.081 96.5559 165.287 93.9742 165.87C91.3855 166.444 88.6552 163.179 87.8701 158.566C87.5376 156.725 87.5942 154.826 88.0398 153.019L84.9276 133.439L93.0618 131.948L95.2616 151.411C96.2659 152.902 96.945 154.634 97.235 156.483V156.475Z" fill="#F3A3A6"/>
<path d="M87.3396 151.17L75.393 107.712V107.645L79.9057 62.8965C80.5989 56.0422 85.536 50.8785 91.3925 50.8785C94.9786 50.8785 98.303 52.7858 100.51 56.1171C102.717 59.4485 103.488 63.7044 102.618 67.8103L94.6462 105.347L96.5489 147.947L87.3325 151.17H87.3396Z" fill="#BEEF9E"/>
</g>
<defs>
<clipPath id="clip0_26_126">
<rect width="480" height="304.713" fill="white"/>
</clipPath>
</defs>
</svg>
