<svg width="480" height="305" viewBox="0 0 480 305" fill="none" xmlns="http://www.w3.org/2000/svg">
<g clip-path="url(#clip0_26_249)">
<path d="M129.715 28.0939C131.66 24.6003 135.855 22.5294 139.08 23.4643C142.305 24.3993 143.345 27.9933 141.4 31.4868C140.65 32.8893 139.426 34.1359 137.821 35.1211L129.305 49.8391L119.353 46.6774L128.803 32.5022C128.59 30.9892 128.902 29.4762 129.708 28.0888L129.715 28.0939Z" fill="#A0616A"/>
<path d="M94.0308 122.057C94.0308 122.057 79.7501 117.141 80.7403 113.612C81.7306 110.078 124.276 34.8246 124.276 34.8246L143.975 44.0233L94.0308 122.062V122.057Z" fill="#E6E6E6"/>
<path d="M308.221 304.71H171.624C151.755 304.71 135.593 293.224 135.593 279.104V25.6057C135.593 11.4859 151.755 0 171.624 0H308.221C328.089 0 344.252 11.4859 344.252 25.6057V279.104C344.252 293.224 328.089 304.71 308.221 304.71Z" fill="#D7D7D8"/>
<path d="M308.32 297.778H171.525C156.819 297.778 144.852 289.273 144.852 278.823V25.3895C144.852 14.9392 156.819 6.43408 171.525 6.43408H308.32C323.025 6.43408 334.993 14.9392 334.993 25.3895V278.823C334.993 289.273 323.025 297.778 308.32 297.778Z" fill="white"/>
<path d="M259.267 23.3035H220.584C215.477 23.3035 211.325 20.3529 211.325 16.7237C211.325 13.0944 215.477 10.1438 220.584 10.1438H259.267C264.374 10.1438 268.526 13.0944 268.526 16.7237C268.526 20.3529 264.374 23.3035 259.267 23.3035Z" fill="#D7D7D8"/>
<path d="M304.578 101.433H175.273C169.422 101.433 164.678 104.803 164.678 108.96C164.678 113.117 169.422 116.487 175.273 116.487H304.578C310.43 116.487 315.174 113.117 315.174 108.96C315.174 104.803 310.43 101.433 304.578 101.433Z" fill="#BEEF9E"/>
<path d="M212.436 88.9213H169.65C168.631 88.9213 167.804 89.5086 167.804 90.2332C167.804 90.9578 168.631 91.5452 169.65 91.5452H212.436C213.455 91.5452 214.282 90.9578 214.282 90.2332C214.282 89.5086 213.455 88.9213 212.436 88.9213Z" fill="#BEEF9E"/>
<path d="M304.578 152.398H175.273C169.422 152.398 164.678 155.768 164.678 159.925C164.678 164.082 169.422 167.453 175.273 167.453H304.578C310.43 167.453 315.174 164.082 315.174 159.925C315.174 155.768 310.43 152.398 304.578 152.398Z" fill="#D7D7D8"/>
<path d="M212.436 139.881H169.65C168.631 139.881 167.804 140.469 167.804 141.193C167.804 141.918 168.631 142.505 169.65 142.505H212.436C213.455 142.505 214.282 141.918 214.282 141.193C214.282 140.469 213.455 139.881 212.436 139.881Z" fill="#D7D7D8"/>
<path d="M304.578 203.358H175.273C169.422 203.358 164.678 206.728 164.678 210.885C164.678 215.042 169.422 218.413 175.273 218.413H304.578C310.43 218.413 315.174 215.042 315.174 210.885C315.174 206.728 310.43 203.358 304.578 203.358Z" fill="#D7D7D8"/>
<path d="M212.436 190.847H169.65C168.631 190.847 167.804 191.434 167.804 192.159C167.804 192.883 168.631 193.47 169.65 193.47H212.436C213.455 193.47 214.282 192.883 214.282 192.159C214.282 191.434 213.455 190.847 212.436 190.847Z" fill="#D7D7D8"/>
<path d="M380.502 62.0287C380.502 62.0287 365.917 63.1999 364.976 79.245C364.191 92.6159 362.592 100.07 370.246 102.86C372.983 103.855 376.201 103.946 379.122 103.262L410.372 95.9586C410.372 95.9586 410.846 71.886 400.024 66.04C389.202 60.189 380.502 62.0287 380.502 62.0287Z" fill="#2F2E41"/>
<path d="M397.732 98.9143L381.916 102.609V86.4331H396.261L397.732 98.9143Z" fill="#FFB6B6"/>
<path d="M349.387 190.756C348.531 194.461 345.051 197.12 341.62 196.693C338.19 196.265 336.096 192.913 336.959 189.203C337.27 187.72 338.098 186.313 339.371 185.111L343.29 169.443L353.956 171.032L348.955 186.308C349.613 187.755 349.762 189.278 349.387 190.756Z" fill="#FFB6B6"/>
<path d="M435.602 188.957C436.656 192.636 434.725 195.999 431.301 196.466C427.878 196.934 424.249 194.325 423.202 190.645C422.757 189.178 422.828 187.66 423.408 186.212L419.241 170.574L430.007 169.363L432.97 184.905C434.307 186.091 435.206 187.479 435.602 188.957Z" fill="#FFB6B6"/>
<path d="M391.783 280.019H376.972V294.953H391.783V280.019Z" fill="#FFB6B6"/>
<path d="M362.55 303.996C360.994 303.996 359.607 303.971 358.561 303.901C354.628 303.644 350.872 301.578 348.984 300.372C348.135 299.829 347.866 298.965 348.304 298.221C348.623 297.688 349.252 297.286 350.037 297.13L360.435 295.019L377.269 286.946L377.46 287.187C377.531 287.278 379.186 289.394 379.738 290.821C379.95 291.364 379.893 291.817 379.575 292.168C379.356 292.41 379.045 292.551 378.797 292.631C379.101 292.857 380.056 293.32 382.998 293.651C387.292 294.134 388.197 290.972 388.233 290.841L388.261 290.736L388.388 290.676C390.432 289.741 391.691 289.313 392.123 289.404C392.392 289.459 392.844 289.56 394.068 298.17C394.188 298.442 395.044 300.422 394.464 302.317C393.835 304.378 381.159 303.669 378.62 303.509C378.549 303.514 369.057 303.996 362.557 303.996H362.55Z" fill="#2F2E41"/>
<path d="M433.955 268.288L421.387 273.858L432.508 286.53L445.075 280.96L433.955 268.288Z" fill="#FFB6B6"/>
<path d="M417.268 301.95C415.528 301.95 413.929 301.8 412.791 301.659C411.673 301.518 410.796 300.885 410.612 300.09C410.485 299.517 410.718 298.939 411.27 298.512L418.52 292.812L426.796 279.632L427.135 279.763C427.262 279.813 430.24 280.984 431.775 281.99C432.362 282.372 432.652 282.779 432.638 283.196C432.631 283.488 432.475 283.719 432.32 283.885C432.744 283.965 433.897 283.995 436.641 283.171C440.645 281.969 439.061 278.943 438.99 278.818L438.933 278.717L438.997 278.622C440.037 277.058 440.779 276.224 441.218 276.139C441.494 276.083 441.946 275.998 449.394 282.849C449.699 283.03 451.898 284.392 452.818 286.217C453.815 288.202 442.533 292.37 440.263 293.184C440.192 293.224 428.387 299.321 423.535 301.056C421.611 301.744 419.333 301.955 417.261 301.955L417.268 301.95Z" fill="#2F2E41"/>
<path d="M402.69 155.132H361.22L357.457 182.548L373.924 283.844H395.094L386.627 225.339L420.967 278.159L439.782 268.8L412.967 219.488C412.967 219.488 422.545 176.531 415.019 165.829C407.493 155.132 402.69 155.132 402.69 155.132Z" fill="#2F2E41"/>
<path d="M423.316 156.806H351.346L377.22 96.2954H405.916L423.316 156.806Z" fill="#BEEF9E"/>
<path d="M381.747 96.3055C381.747 96.3055 363.873 95.9687 361.991 99.3164C360.11 102.659 337.999 182.226 337.999 182.226H352.584L381.754 96.3055H381.747Z" fill="#BEEF9E"/>
<path d="M393.375 96.3758C393.375 96.3758 409.12 94.9583 411.001 98.301C412.883 101.644 434.993 181.21 434.993 181.21H420.408L393.375 96.3758Z" fill="#BEEF9E"/>
<path d="M383.876 90.9119C392.579 90.9119 399.635 85.8978 399.635 79.7125C399.635 73.5273 392.579 68.5132 383.876 68.5132C375.172 68.5132 368.116 73.5273 368.116 79.7125C368.116 85.8978 375.172 90.9119 383.876 90.9119Z" fill="#FFB6B6"/>
<path d="M379.561 66.206C379.561 66.206 370.889 91.2336 380.53 102.931L366.949 100.88C366.949 100.88 361.687 73.4896 372.268 68.5082L379.561 66.2009V66.206Z" fill="#2F2E41"/>
<path d="M480 303.398C480 303.815 479.526 304.152 478.939 304.152H1.06098C0.473903 304.152 0 303.815 0 303.398C0 302.981 0.473903 302.644 1.06098 302.644H478.939C479.526 302.644 480 302.981 480 303.398Z" fill="#2E2E41"/>
<path d="M81.4123 87.8305L99.5267 92.0629V73.5297H83.0886L81.4123 87.8305Z" fill="#A0616A"/>
<path d="M97.2845 78.6568C107.254 78.6568 115.335 72.9135 115.335 65.8288C115.335 58.7441 107.254 53.0009 97.2845 53.0009C87.3153 53.0009 79.2337 58.7441 79.2337 65.8288C79.2337 72.9135 87.3153 78.6568 97.2845 78.6568Z" fill="#A0616A"/>
<path d="M92.6869 66.8343L95.1767 68.9806L99.6752 63.381C99.6752 63.381 105.419 63.5921 105.419 60.561C105.419 57.53 110.688 57.4445 110.688 57.4445C110.688 57.4445 118.15 48.1854 102.695 50.6233C102.695 50.6233 91.9725 45.4057 86.6464 49.8643C86.6464 49.8643 70.3003 55.7153 74.9757 65.8993L82.7491 76.4L84.5103 74.0224C84.5103 74.0224 83.4423 64.0445 92.6869 66.8242V66.8343Z" fill="#2F2E41"/>
<path d="M75.973 295.114H90.7842V280.18H75.973V295.114Z" fill="#A0616A"/>
<path d="M89.1503 303.669C86.6181 303.83 73.943 304.544 73.3064 302.478C72.7264 300.583 73.5823 298.603 73.7025 298.331C74.9191 289.716 75.3718 289.62 75.6476 289.565C76.0791 289.474 77.3381 289.902 79.3823 290.836L79.5096 290.897L79.5379 291.002C79.5732 291.138 80.4786 294.3 84.772 293.812C87.7145 293.48 88.6694 293.018 88.9735 292.792C88.7259 292.711 88.4147 292.571 88.1955 292.329C87.8772 291.978 87.8206 291.525 88.0328 290.982C88.5845 289.55 90.2396 287.433 90.3103 287.348L90.5013 287.107L107.335 295.179L117.733 297.291C118.518 297.452 119.148 297.849 119.466 298.381C119.905 299.125 119.636 299.99 118.787 300.533C116.898 301.739 113.15 303.805 109.21 304.062C108.163 304.132 106.777 304.157 105.221 304.157C98.7203 304.157 89.2281 303.68 89.1574 303.669H89.1503Z" fill="#2F2E41"/>
<path d="M109.705 151.428L70.852 150.015C70.852 150.015 64.8964 166.06 72.4223 182.779L73.3276 283.457H95.2828L115.979 179.602L109.705 151.428Z" fill="#2F2E41"/>
<path d="M103.148 84.2716L81.8225 76.229C81.8225 76.229 58.8418 100.096 62.0176 113.024C65.2006 125.953 70.845 150.02 70.845 150.02L117.889 151.433L109.677 104.036L103.148 84.2716Z" fill="#E6E6E6"/>
<path d="M86.512 295.114H101.323V280.18H86.512V295.114Z" fill="#A0616A"/>
<path d="M99.6894 303.669C97.1572 303.83 84.482 304.544 83.8455 302.478C83.2655 300.583 84.1213 298.603 84.2416 298.331C85.4581 289.716 85.9108 289.62 86.1867 289.565C86.6181 289.474 87.8772 289.902 89.9213 290.836L90.0486 290.897L90.0769 291.002C90.1123 291.138 91.0177 294.3 95.3111 293.812C98.2535 293.48 99.2084 293.018 99.5126 292.792C99.265 292.711 98.9538 292.571 98.7345 292.329C98.4162 291.978 98.3596 291.525 98.5718 290.982C99.1235 289.55 100.779 287.433 100.849 287.348L101.04 287.107L117.875 295.179L128.272 297.291C129.057 297.452 129.687 297.849 130.005 298.381C130.444 299.125 130.175 299.99 129.326 300.533C127.437 301.739 123.689 303.805 119.749 304.062C118.702 304.132 117.316 304.157 115.76 304.157C109.259 304.157 99.7672 303.68 99.6965 303.669H99.6894Z" fill="#2F2E41"/>
<path d="M117.889 151.428L70.8449 150.015C70.8449 150.015 64.8893 166.06 72.4152 182.779L81.5113 283.457H103.466L124.163 179.602L117.889 151.428Z" fill="#2F2E41"/>
<path d="M135.961 177.717C137.694 181.266 136.413 184.779 133.11 185.569C129.807 186.353 125.726 184.116 123.993 180.562C123.271 179.149 123.059 177.636 123.37 176.149L116.318 161.044L126.758 158.827L132.608 173.952C134.157 175.003 135.31 176.294 135.968 177.717H135.961Z" fill="#A0616A"/>
<path d="M76.7723 89.9517C76.7723 89.9517 92.1069 87.0564 94.6038 90.193C97.0935 93.3296 133.909 170.097 133.909 170.097L110.54 172.258L76.7794 89.9517H76.7723Z" fill="#E6E6E6"/>
</g>
<defs>
<clipPath id="clip0_26_249">
<rect width="480" height="304.71" fill="white"/>
</clipPath>
</defs>
</svg>
