<svg width="480" height="308" viewBox="0 0 480 308" fill="none" xmlns="http://www.w3.org/2000/svg">
<g clip-path="url(#clip0_26_250)">
<path d="M234.02 226.473C245.446 229.129 252.869 235.674 250.599 241.091C248.329 246.508 237.228 248.745 225.798 246.087C221.213 245.072 217.02 243.254 213.572 240.785L165.348 229.077L173.205 212.336L219.911 225.654C224.634 225.084 229.472 225.365 234.02 226.473Z" fill="#FFB6B6"/>
<path d="M130.712 103.634C119.214 102.62 108.626 108.409 106.484 116.886C98.8439 147.122 82.6166 212.507 84.7536 214.099C87.5357 216.171 191.4 238.97 191.4 238.97L203.455 219.626L134.831 194.755L149.881 122.437C151.792 113.256 143.096 104.727 130.712 103.634Z" fill="#E6E6E6"/>
<path d="M255.842 257.924C244.693 261.169 233.409 259.513 230.638 254.226C227.868 248.94 234.661 242.027 245.814 238.782C250.246 237.441 255.044 236.909 259.808 237.233L307.281 223.931L315.185 240.66L267.546 251.997C264.336 254.641 260.323 256.673 255.842 257.924Z" fill="#A0616A"/>
<path d="M324.303 114.337C335.684 112.749 346.769 117.996 349.671 126.346C360.022 156.132 382.11 220.556 380.122 222.251C377.533 224.458 275.96 252.405 275.96 252.405L262.187 233.708L328.413 205.458L306.873 134.057C304.138 124.993 312.045 116.047 324.303 114.337Z" fill="#E6E6E6"/>
<path d="M122.567 107.977L128.223 81.6419L90.0437 70.0542L84.3876 110.084L122.567 107.977Z" fill="#FFB6B6"/>
<path d="M345.549 112.123L339.893 85.787L378.072 74.1993L383.729 114.229L345.549 112.123Z" fill="#A0616A"/>
<path d="M112.919 90.1078C134.421 90.1078 151.852 77.122 151.852 61.1033C151.852 45.0845 134.421 32.0988 112.919 32.0988C91.4161 32.0988 73.985 45.0845 73.985 61.1033C73.985 77.122 91.4161 90.1078 112.919 90.1078Z" fill="#FFB6B6"/>
<path d="M109.811 22.1088C110.938 22.5987 112.447 21.8574 112.808 20.9236C113.169 19.9898 112.749 18.9984 112.331 18.0777L110.231 13.4425C108.741 10.1552 107.16 6.75293 103.933 4.25082C99.0629 0.474311 91.3232 -0.486421 84.356 0.209595C75.4086 1.10341 66.5807 4.71274 62.4204 10.6812C58.2602 16.6497 60.0313 24.9779 67.5486 28.7016C56.8348 37.8498 53.1002 48.045 53.6899 60.1776C54.2796 72.3102 72.0272 83.4762 83.6011 92.0231C86.1857 90.8559 88.5355 85.3859 87.1141 83.3987C85.6928 81.4116 87.7293 79.1094 85.969 77.279C84.2087 75.4486 82.7361 78.3631 84.5156 76.5432C85.6386 75.3947 81.2558 72.7526 82.9249 72.0653C90.9985 68.7406 93.6837 61.2437 98.7545 55.5027C104.871 48.578 115.339 43.8885 126.416 43.1105C132.519 42.682 138.964 43.4582 143.966 46.0974C148.968 48.7367 152.206 53.4531 151.046 57.9368C154.05 55.6646 155.546 52.3346 154.982 49.1732C154.418 46.0118 151.807 43.0884 148.111 41.4795C150.358 35.9426 148.433 29.5735 143.216 25.2888C137.999 21.0041 116.838 21.7339 109.222 22.8615" fill="#2F2E41"/>
<path d="M108.629 43.2786C98.5417 44.0898 91.2587 50.599 85.1087 56.6103C81.5641 60.075 77.8511 63.9013 77.94 68.2571C78.03 72.661 81.9824 76.4383 83.8713 80.6118C86.9588 87.4336 83.9497 95.5499 76.6001 100.224C83.8623 101.251 91.713 97.1943 92.9667 91.7673C94.4262 85.4497 87.9977 79.3522 88.759 72.9668C89.4298 67.3412 95.3806 63.0116 100.44 58.8054C105.499 54.5991 110.25 49.0176 107.923 43.6426" fill="#2F2E41"/>
<path d="M126.978 103.561L82.8988 94.5803L37.4583 108.397L17.9838 223.08L129.267 225.843V207.345C129.267 207.345 148.741 189.228 145.032 162.975L141.322 136.723L126.978 103.561Z" fill="#E6E6E6"/>
<path d="M147.35 150.194L60.1786 146.74L36.531 196.827C36.531 196.827 7.31923 226.88 2.68244 248.987C-1.95435 271.095 0.827723 302.183 0.827723 302.183H140.384L129.267 207.345C129.267 207.345 155.222 165.393 152.213 158.139C149.205 150.885 147.35 150.194 147.35 150.194Z" fill="#3F3D56"/>
<path d="M80.5804 94.9258H59.2512V153.649H80.5804V94.9258Z" fill="#3F3D56"/>
<path d="M146.423 108.052H125.094V156.412H146.423V108.052Z" fill="#3F3D56"/>
<path d="M339.284 109.088L383.363 100.107L428.803 113.924L448.278 228.607L336.995 231.37V212.872C336.995 212.872 325.611 193.96 336.531 168.848C347.196 144.322 324.939 142.25 324.939 142.25L339.284 109.088Z" fill="#E6E6E6"/>
<path d="M318.911 155.721L406.083 152.267L429.73 202.354C429.73 202.354 444.105 236.552 448.741 258.659C453.378 280.767 465.434 307.71 465.434 307.71H325.877L321.693 216.517L318.911 155.721Z" fill="#3F3D56"/>
<path d="M407.01 100.453H385.681V159.176H407.01V100.453Z" fill="#3F3D56"/>
<path d="M341.168 113.579H319.839V161.939H341.168V113.579Z" fill="#3F3D56"/>
<path d="M354.172 94.1386C381.103 94.1386 402.935 77.8744 402.935 57.8115C402.935 37.7486 381.103 21.4844 354.172 21.4844C327.241 21.4844 305.409 37.7486 305.409 57.8115C305.409 77.8744 327.241 94.1386 354.172 94.1386Z" fill="#A0616A"/>
<path d="M402.136 77.5181C402.136 77.5181 378.544 56.4276 369.107 58.1851C359.67 59.9427 365.568 62.579 365.568 62.579L341.976 43.246C341.976 43.246 323.103 37.9734 305.409 54.67C305.409 54.67 294.792 40.6097 305.409 32.7008C316.025 24.7918 319.564 25.6706 321.923 21.2767C324.282 16.8829 340.797 13.3678 340.797 13.3678C340.797 13.3678 339.849 7.04341 345.041 10.2056C350.234 13.3678 363.2 13.3678 363.2 13.3678C363.2 13.3678 363.274 9.85271 368.55 13.3678C373.826 16.8829 379.724 15.1253 379.724 15.1253C379.724 15.1253 379.724 21.2075 383.852 21.2421C387.981 21.2767 395.058 16.8829 396.238 20.398C397.418 23.913 405.675 25.6706 406.854 36.2158C408.034 46.7611 402.136 77.5181 402.136 77.5181Z" fill="#2F2E41"/>
<path d="M221.284 131.738L259.038 184.909L253.863 186.948L216.109 133.778C215.561 133.006 215.957 132.048 216.993 131.64L218.414 131.08C219.45 130.671 220.736 130.967 221.284 131.738Z" fill="#3F3D56"/>
<path d="M284.182 205.003C274.577 203.158 264.529 206.425 259.709 212.883C253.673 220.971 246.778 227.605 249.087 211.793C251.629 194.385 237.921 180.326 248.694 176.08C259.467 171.835 270.591 184.737 288.1 196.419C304.328 207.246 294.97 207.075 284.182 205.003Z" fill="#3F3D56"/>
<path d="M228.586 142.495C239.474 138.791 250.865 139.974 254.028 145.137C257.191 150.299 250.928 157.485 240.035 161.189C235.711 162.713 230.96 163.443 226.18 163.319L179.78 178.578L170.632 162.204L217.346 148.9C220.352 146.127 224.206 143.93 228.586 142.495Z" fill="#FFB6B6"/>
<path d="M41.6043 102.382C32.1326 107.344 29.435 116.92 35.4344 124.297C56.8329 150.613 103.325 207.372 106.343 207.495C110.271 207.655 208.043 172.991 208.043 172.991L199.69 152.592L126.305 168.191L72.7245 106.854C65.9225 99.067 51.8057 97.0387 41.6043 102.382Z" fill="#E6E6E6"/>
<path d="M233.226 224.151L358.646 174.727L374.042 196.41C387.323 215.114 377.721 238.331 352.615 248.225L318.176 261.797C293.069 271.691 261.903 264.538 248.622 245.834L233.226 224.151Z" fill="#BEEF9E"/>
<path d="M339.485 257.374C328.598 261.079 317.206 259.897 314.043 254.734C310.879 249.572 317.14 242.386 328.032 238.681C332.356 237.156 337.107 236.425 341.888 236.549L388.284 221.286L397.435 237.658L350.724 250.967C347.719 253.741 343.865 255.938 339.485 257.374Z" fill="#A0616A"/>
<path d="M433.849 111.234C445.348 110.219 455.935 116.009 458.077 124.486C465.718 154.722 481.945 220.106 479.808 221.698C477.026 223.771 373.162 246.569 373.162 246.569L361.106 227.225L429.731 202.354L414.68 130.036C412.77 120.856 421.465 112.326 433.849 111.234Z" fill="#E6E6E6"/>
</g>
<defs>
<clipPath id="clip0_26_250">
<rect width="480" height="307.71" fill="white"/>
</clipPath>
</defs>
</svg>
